**ABCDEFGHIJKLMNOPQRSTUVWXYZabcdefghijklmnopqrstuvwxyz**************************
**PARASOLID !"#$%&'()*+,-./:;<=>?@[\]^_`{|}~0123456789**************************
**PART1;
MC=AMD64;
MC_MODEL=AMD64 Family 23 Model 113 Stepping 0, AuthenticAMD;
MC_ID=unknown;
OS=Windows_NT;
OS_RELEASE=unknown;
FRU=Parasolid Version 34.1, build 247, 10- 7-2022;
APPL=SOLIDWORKS 2023-2023096;
SITE=;
USER=unknown;
FORMAT=text;
GUISE=transmit;
KEY=makeProjectedPlanarWire;
FILE=makeProjectedPlanarWire.x_t;
DATE=Sat Mar 23 12:32:29 2024;
**PART2;
SCH=SCH_3401247_34101;
USFLD_SIZE=0;
**PART3;
**END_OF_HEADER*****************************************************************
T51 : TRANSMIT FILE created by modeller version 340124723 SCH_3401247_34101_1300
6231 0 12 36 CCCI7 lattice222 0 CCCI4 mesh1006 0 I8 polyline1008 0 CCCCCCCDI5 ow
ner1040 0 CCCI16 boundary_lattice222 0 CCCI13 boundary_mesh1006 0 I17 boundary_p
olyline1008 0 CCCA16 index_map_offset0 0 1 dA9 index_map82 0 A17 node_id_index_m
ap82 0 A20 schema_embedding_map82 0 A5 child12 0 A14 lowest_node_id0 0 1 dA16 me
sh_offset_data206 0 Z1 1795 0 0 0 0 0 0 0 0 0 1e3 1e-8 0 2 0 1 0 3 1 3 0 4 5 6 0
 0 7 8 9 0 0 0 0 0 0 0 13 255 3 127 0 1 0 10 0 0 7 10 50 255 4 3 0 10 0 0 0 +0 0
 -.01 0 0 -1 -1 0 0 31 255 5 83 0 8 11 0 0 -.0094 -.010175 -.01 0 0 -1 -1 0 0 .0
02 29 255 6 125 0 9 12 0 .0114 -.010175 -.01 19 9 CCCCCCI5 frame230 0 CA5 owner1
2 0 Z7 126 0 1 0 0 3 0 V0 16 255 8 81 0 ?13 0 14 5 0 0 1 18 255 9 123 0 15 0 16
 6 ?1 17 255 15 0 0 0 0 9 17 18 0 13 -18 16 120 0 19 9 20 12 ?1 17 19 0 21 13 22
 16 23 14 0 24 -18 20 117 0 22 16 25 26 ?1 29 12 122 0 16 26 6 .0094 -.012175 -.
01 29 26 119 0 20 27 12 -.0094 -.012175 -.01 29 27 116 0 25 28 26 -.0114 -.01017
5 -.01 18 25 114 0 29 20 30 27 ?1 29 28 113 0 30 31 27 -.0114 3469444756978035e-
33 -.01 18 30 111 0 32 25 33 28 ?1 29 31 110 0 33 34 28 .0114 0 -.01 18 33 108 0
 17 30 35 31 ?1 29 34 107 0 35 36 31 .0134 -.010175 -.01 18 35 105 0 37 33 38 34
 ?1 29 36 104 0 38 39 34 .0134 .015 -.01 18 38 102 0 40 35 41 36 ?1 29 39 98 0 4
1 42 36 -.0134 .015 -.01 18 41 96 0 43 38 44 39 ?1 29 42 95 0 44 45 39 -.0134 -.
010175 -.01 18 44 93 0 46 41 47 42 ?1 29 45 92 0 47 48 42 -.0094 -.014175 -.01 1
8 47 90 0 49 44 50 45 ?1 29 48 89 0 50 0 45 .0094 -.014175 -.01 18 50 87 0 51 47
 0 48 ?1 17 51 0 52 49 53 50 37 54 0 55 -15 255 52 7 0 51 10 21 17 49 0 52 46 51
 47 55 56 0 57 +17 53 0 52 51 40 35 58 59 0 0 -17 37 0 0 0 0 35 51 54 0 53 +16 5
4 9 0 ?37 56 0 60 0 0 1 17 55 0 0 0 0 50 49 56 0 0 -16 56 15 0 ?49 61 54 62 0 0
 1 16 61 21 0 ?46 63 56 64 0 0 1 30 255 62 17 0 56 60 64 0 +0 -.014175 -.01 -1 0
 0 31 60 11 0 54 0 62 0 -.0094 -.010175 -.01 0 0 -1 -1 0 0 .004 31 64 23 0 61 62
 65 0 +-.0094 -.010175 -.01 0 0 -1 -1 0 0 .004 30 65 29 0 63 64 66 0 +-.0134 -18
4669668942119e-32 -.01 -1378131857777006e-31 1 0 16 63 27 0 ?43 67 61 65 0 0 1 3
0 66 35 0 67 65 68 0 +582556391186241e-32 .015 -.01 -1 388370927457494e-30 0 16
 67 33 0 ?69 59 63 66 0 0 1 30 68 47 0 59 66 70 0 +.0134 184669668942119e-32 -.0
1 -1378131857777008e-31 1 0 16 59 45 0 ?58 18 67 68 0 0 1 30 70 53 0 18 68 71 0
 +.0114 0 -.01 0 1 0 16 18 51 0 ?17 72 59 70 0 0 1 31 71 59 0 72 70 73 0 -173472
3475976805e-33 1396097351027982e-33 -.01 0 0 -1 -1 0 0 .0114 16 72 57 0 ?32 74 1
8 71 0 0 1 30 73 65 0 74 71 75 0 +-.0114 388714449653771e-32 -.01 34097758741558
9e-30 1 0 16 74 63 0 ?76 77 72 73 0 0 1 31 75 71 0 77 73 11 0 +-.0094 -.010175 -
.01 0 0 -1 -1 0 0 .002 16 77 69 0 ?78 14 74 75 0 0 1 30 11 77 0 14 75 5 0 +0 -.0
12175 -.01 -1 0 0 16 14 75 0 ?23 8 77 11 0 0 1 17 23 0 0 0 0 20 19 14 0 0 +17 78
 0 0 0 0 25 22 77 0 0 +17 22 0 21 19 29 20 78 77 0 23 -15 21 8 0 17 10 0 17 29 0
 21 22 32 25 76 74 0 78 -17 32 0 21 29 17 30 79 72 0 76 +17 76 0 0 0 0 30 29 74
 0 0 +17 17 0 21 32 13 33 15 18 0 79 +17 79 0 0 0 0 33 32 72 0 0 -17 13 0 21 17
 19 9 24 8 0 0 +17 24 0 0 0 0 16 13 8 0 0 -14 255 10 1 0 ?0 0 52 3 4 +0 0 0 0 3
 17 58 0 0 0 0 38 53 59 0 0 +17 69 0 0 0 0 41 40 67 0 0 +17 40 0 52 53 43 38 69
 67 0 58 -17 43 0 52 40 46 41 80 63 0 69 +17 46 0 52 43 49 44 57 61 0 80 +17 80
 0 0 0 0 44 43 63 0 0 -17 57 0 0 0 0 47 46 61 0 0 -1 0 
